# xmcd
#
# Track frame offsets:
#	151
#	20959
#	48628
#	71641
#	113198
#	132598
#	165290
#	215336
#	244668
#
# Disc length: 3829 seconds
#
# Revision: 1
# Processed by: cddbd v1.5.1PL2 Copyright (c) Steve Scherf et al.
# Submitted via: CDmax 2.0
#
DISCID=830ef309
DTITLE=Eric Clapton - Final Reptile (disc2)
DYEAR=2001
DGENRE=Blues
TTITLE0=I Want a Little Girl
TTITLE1=Badge
TTITLE2=Hoochie Coochie Man
TTITLE3=Five Long Years
TTITLE4=Cocaine
TTITLE5=Wonderful Tonight
TTITLE6=Layla
TTITLE7=Sunshine of Your Love
TTITLE8=Band Introduction~Somewhere Over the Rainbow
EXTD=Reptile Japan Tour 2001\nEric Clapton\t\tguitars, vocals\nAndy Fairweath
EXTD=er Low\tguitars, vocals\nNathan East\t\tbass, vocals\nSteve Gadd\t\tdrum
EXTD=s\nDavid Sancious\t\tkeyboards, vocals, guitar\nGreg Phillinganes\t\tkey
EXTD=boards\n\nRecorded live at Yokohama Arena, Kanagawa, Japan on December 1
EXTD=5th, 2001\n\nMaster from Sylph
EXTT0=
EXTT1=
EXTT2=
EXTT3=
EXTT4=
EXTT5=
EXTT6=
EXTT7=
EXTT8=
PLAYORDER=
